# xmcd
#
# Track frame offsets:
#	150
#	16177
#	33426
#	50659
#	63490
#	78767
#	97618
#	111834
#	129105
#	144963
#	160242
#	175772
#	191295
#	205520
#	221914
#	239569
#	257143
#	270395
#	288313
#	306352
#	323821
#
# Disc length: 4543 seconds
#
# Revision: 1
# Processed by: cddbd v1.5.2PL0 Copyright (c) Steve Scherf et al.
# Submitted via: dBpowerAMP V4.0
#
DISCID=1b11bd15
DTITLE=Various Artist - ERG Nu Country Traxx Vol. 192 Can
DYEAR=2010
DGENRE=Country
TTITLE0=Dierks Bentley - Up On The Ridge
TTITLE1=Keith Urban - I'm In
TTITLE2=Terri Clark And Johnny Reid - You Tell Me
TTITLE3=Alan Jackson - Hard Hat And A Hammer
TTITLE4=Jaydee Bixby - Tailgate
TTITLE5=Lady Antebellum - Our Kind Of Love
TTITLE6=Jaron And The Road to Love - Pray For You
TTITLE7=Zac Brown Band - Free
TTITLE8=Jason Greeley - Around For A Reason
TTITLE9=Montgomery Gentry - While You're Still Young
TTITLE10=Tonya Kennedy ft. Colin Amey - When You're Gone
TTITLE11=Victoria Banks - This Old Halo
TTITLE12=Frankie Ballard - Tell Me You Get Lonely
TTITLE13=Troy Olsen - Summer Thing
TTITLE14=Jack Ingram - Barbie Doll 2010
TTITLE15=Dean Brody - Wildflower
TTITLE16=Randy Houser - I'm All About It
TTITLE17=Jason Blaine - Run With Me
TTITLE18=Ridley Bent - I Can't Turn My Back On The Bottle
TTITLE19=Ladies Of The Canyon - Follow You Down
TTITLE20=Julian Austin - Me And This Town
EXTD=
EXTT0=
EXTT1=
EXTT2=
EXTT3=
EXTT4=
EXTT5=
EXTT6=
EXTT7=
EXTT8=
EXTT9=
EXTT10=
EXTT11=
EXTT12=
EXTT13=
EXTT14=
EXTT15=
EXTT16=
EXTT17=
EXTT18=
EXTT19=
EXTT20=
PLAYORDER=
